<svg t="1696944895416" class="icon" viewBox="0 0 1024 1024" version="1.1" xmlns="http://www.w3.org/2000/svg" p-id="2501" width="200" height="200"><path d="M365.312 273.152c-13.248 0-25.664 6.4-33.408 17.28l-265.024 371.008a41.088 41.088 0 0 0 33.408 64.96h265.024a41.088 41.088 0 0 0 41.088-41.088V314.24a41.088 41.088 0 0 0-41.088-41.088z m-3.712 52.672v355.776H107.52l254.08-355.776zM676.288 273.152c13.248 0 25.664 6.4 33.408 17.28l265.024 371.008a41.088 41.088 0 0 1-33.408 64.96h-265.024a41.088 41.088 0 0 1-41.088-41.088V314.24c0-22.656 18.368-41.088 41.088-41.088z m3.712 52.672v355.776h254.08l-254.08-355.776zM492.8 128v64h44.8V128h-44.8z m0 128v64h44.8V256h-44.8z m0 128v64h44.8V384h-44.8z m0 128v64h44.8V512h-44.8z m0 128v64h44.8v-64h-44.8z m0 128v64h44.8v-64h-44.8z m0 128v64h44.8v-64h-44.8z"  p-id="2502"></path></svg>
